# xmcd
#
# Track frame offsets: 
#        150
#        14021
#        32170
#        57790
#        77717
#        91238
#        101721
#        113726
#        131823
#        142975
#        159719
#        174680
#
# Disc length: 2533 seconds
#
# Revision: 0
# Processed by: cddbd v1.5.2PL0 Copyright (c) Steve Scherf et al.
# Submitted via: ExactAudioCopy v0.95a4
#
DISCID=9f09e30c
DTITLE=Various Artist - Rural Rhythm Records Salute Bill Monroe
DYEAR=2011
DGENRE=Bluegrass
TTITLE0=Russell Moore and IIIrd Tyme - Uncle Pen
TTITLE1=Lou Reid and Carolina - Can't You Hear Me Calling
TTITLE2=Brand New Strings - Southern Flavor
TTITLE3=Grasstowne - Were You There
TTITLE4=The Lonesome River Band - Footprints In The Snow
TTITLE5=Audie Blaylock and Redline - Six Feet Under The Ground
TTITLE6=The Bartley Brothers - Big Mon
TTITLE7=Blue Moon Rising - Body and Soul
TTITLE8=Bobby Osborne and The Rocky Top X-Press
TTITLE9=Tommy Long and Carolina Road - This World Is Not My Home
TTITLE10=Ronnie Reno, Mike Scott and The Reno Tradition - Bluegrass Brea
TTITLE10=kdown
TTITLE11=Ron Stewart, J.D. Crowe, Wasson and McCall
EXTD=
EXTT0=
EXTT1=
EXTT2=
EXTT3=
EXTT4=
EXTT5=
EXTT6=
EXTT7=
EXTT8=
EXTT9=
EXTT10=
EXTT11=
PLAYORDER=
